<svg xmlns="http://www.w3.org/2000/svg" xmlns:xlink="http://www.w3.org/1999/xlink" width="378" zoomAndPan="magnify" viewBox="0 0 283.5 283.500005" height="378" preserveAspectRatio="xMidYMid meet" version="1.0"><defs><clipPath id="b565aa8348"><path d="M 0 0 L 283 0 L 283 283 L 0 283 Z M 0 0 " clip-rule="nonzero"/></clipPath><clipPath id="9247043d76"><path d="M 93 28.300781 L 189 28.300781 L 189 90 L 93 90 Z M 93 28.300781 " clip-rule="nonzero"/></clipPath><clipPath id="f8b78004a0"><path d="M 49.53125 140 L 92 140 L 92 174 L 49.53125 174 Z M 49.53125 140 " clip-rule="nonzero"/></clipPath><clipPath id="7b91f33f40"><path d="M 92 117 L 193.875 117 L 193.875 264.164062 L 92 264.164062 Z M 92 117 " clip-rule="nonzero"/></clipPath><clipPath id="663c5c7a78"><path d="M 70 78.296875 L 226.222656 78.296875 L 226.222656 158 L 70 158 Z M 70 78.296875 " clip-rule="nonzero"/></clipPath><clipPath id="26ddc4206c"><rect x="0" width="283" y="0" height="283"/></clipPath></defs><path fill="#ffffff" d="M 0 0 L 283 0 L 283 283 L 0 283 Z M 0 0 " fill-opacity="1" fill-rule="nonzero"/><g transform="matrix(1, 0, 0, 1, 0, 0.000000000000005262)"><g clip-path="url(#26ddc4206c)"><g clip-path="url(#b565aa8348)"><rect x="-62.37" width="408.24" fill="#ffffff" height="408.240007" y="-62.370001" fill-opacity="1"/></g><g clip-path="url(#9247043d76)"><path fill="#2b2b44" d="M 96.570312 44.46875 C 89.210938 38.367188 97.578125 29.191406 106 28.304688 C 100.070312 30.484375 95.472656 38.292969 102.652344 37.046875 C 102.652344 37.046875 124.023438 31.089844 140.628906 36.894531 C 154.511719 41.75 176.878906 68.203125 187.648438 81.609375 C 188.050781 82.113281 189.15625 83.527344 188.289062 84.070312 L 180.84375 88.738281 C 178.132812 90.4375 176.511719 86.792969 175.601562 84.539062 C 174.175781 80.992188 171.46875 76.679688 166.347656 73.445312 C 156.492188 67.214844 149.554688 64.027344 148.507812 55.082031 C 137.484375 44.925781 124.488281 42.707031 118.84375 42.414062 C 110.96875 42.003906 102.246094 42.90625 96.570312 44.46875 " fill-opacity="1" fill-rule="evenodd"/></g><path fill="#2b2b44" d="M 212.710938 218.109375 C 207.863281 222.167969 198.820312 222.257812 203.484375 216.644531 C 203.484375 216.644531 219.316406 201.066406 222.605469 183.746094 C 225.378906 169.125 213.46875 136 207.320312 120.113281 C 206.929688 119.101562 206.570312 118.378906 205.40625 119 C 202.746094 120.417969 200.082031 121.835938 197.421875 123.253906 C 195.148438 124.414062 197.242188 127.535156 198.25 128.722656 C 200.785156 131.714844 203.617188 136.488281 203.898438 143.128906 C 204.394531 154.8125 203.636719 162.429688 210.835938 167.808594 C 214.097656 182.460938 209.519531 194.855469 206.949219 199.902344 C 204.171875 205.367188 200.453125 210.875 196.96875 215.003906 C 188.289062 225.3125 205.851562 227.574219 212.710938 218.109375 " fill-opacity="1" fill-rule="evenodd"/><path fill="#2b2b44" d="M 203.292969 112.871094 C 204.3125 115.617188 205.210938 118.371094 205.957031 121.109375 C 203.285156 122.347656 200.613281 123.582031 197.941406 124.820312 C 197.210938 121.9375 196.128906 118.792969 194.816406 115.542969 L 194.953125 115.878906 C 198.335938 116.5625 201.328125 115.210938 203.292969 112.871094 " fill-opacity="1" fill-rule="evenodd"/><path fill="#2b2b44" d="M 187.585938 83.210938 C 190.035156 86.722656 192.496094 90.617188 194.816406 94.753906 L 187.6875 97.808594 C 187.214844 97.902344 186.726562 97.984375 186.203125 98.058594 C 184.023438 94.253906 181.792969 90.703125 179.71875 87.699219 C 182.410156 86.148438 184.878906 84.78125 187.585938 83.210938 " fill-opacity="1" fill-rule="evenodd"/><path fill="#2b2b44" d="M 123.5625 108 C 123.5625 108 118.351562 114.445312 116.0625 110.640625 C 114.800781 108.550781 112.871094 105.015625 110.394531 102.4375 C 106.804688 98.699219 97.359375 99.96875 86.648438 99.929688 L 79.789062 125.59375 C 83.359375 130.660156 87.890625 135.367188 93.59375 138.648438 C 96.375 140.25 99.070312 141.441406 101.65625 142.3125 L 112.207031 137.082031 C 109.097656 135.234375 106.195312 132.535156 102.578125 128.753906 C 98.527344 124.511719 89.011719 119.742188 89.011719 119.742188 C 89.011719 119.742188 97.117188 119.390625 99.320312 114.53125 C 101.523438 109.671875 102.492188 109.492188 102.492188 109.492188 C 102.492188 109.492188 104.429688 111.351562 103.8125 115.5 C 103.195312 119.652344 105.046875 119.832031 105.046875 119.832031 C 109.714844 116.542969 114.523438 119.628906 117.292969 115.851562 C 118.527344 114.179688 121.347656 112.941406 122.492188 112.230469 C 123.636719 111.527344 123.5625 108 123.5625 108 Z M 105.472656 143.386719 C 119.726562 146.644531 129.714844 140.414062 129.714844 140.414062 C 123.226562 140.589844 118.78125 140.058594 114.964844 138.472656 Z M 83.867188 99.886719 C 78.5625 99.738281 73.050781 99.148438 67.863281 97.390625 C 67.863281 97.390625 70.289062 110.507812 77.886719 122.71875 L 83.867188 99.886719 " fill-opacity="1" fill-rule="evenodd"/><path fill="#2b2b44" d="M 111.871094 126.957031 C 111.871094 126.957031 114.449219 124.929688 116.617188 124.648438 C 118.78125 124.371094 120.453125 123.179688 121.359375 122.410156 C 122.269531 121.640625 124.992188 121.222656 124.992188 121.222656 C 124.992188 121.222656 124.503906 124.414062 123.246094 125.53125 C 122.632812 126.082031 121.71875 126.457031 121.210938 126.695312 C 120.683594 126.941406 120.066406 127.425781 118.851562 127.605469 C 116.480469 127.953125 115.640625 128.777344 113.753906 127.871094 C 111.871094 126.957031 111.871094 126.957031 111.871094 126.957031 " fill-opacity="1" fill-rule="evenodd"/><g clip-path="url(#f8b78004a0)"><path fill="#2b2b44" d="M 91.5625 145.359375 L 74.644531 140.859375 L 60.8125 145.714844 L 70.066406 148.71875 L 56.496094 146.777344 L 49.535156 149.070312 L 67.863281 155.433594 L 68.039062 158.96875 L 59.882812 173.851562 L 69.625 167.714844 L 72.445312 159.941406 L 72.089844 166.125 L 79.820312 161.746094 L 81.25 155.460938 L 83.023438 160.445312 L 91.5625 145.359375 " fill-opacity="1" fill-rule="evenodd"/></g><path fill="#2b2b44" d="M 60.636719 155.789062 C 60.636719 155.789062 59.210938 158.46875 57.378906 160.4375 C 55.515625 162.429688 53.234375 163.738281 53.351562 166.359375 C 53.585938 171.5625 53.972656 170.859375 52.5 173.8125 C 51.292969 176.242188 49.804688 184.492188 56.621094 192.777344 C 57.550781 193.910156 62.070312 197.316406 62.859375 193.574219 C 62.988281 192.953125 63.15625 192.347656 63.359375 191.816406 C 64.246094 189.523438 65.972656 188.785156 65.480469 187.71875 C 64.476562 185.546875 66.929688 180.578125 63.523438 180.433594 C 60.121094 180.28125 61.53125 179.019531 61.066406 177.777344 C 60.601562 176.539062 56.773438 175.542969 56.539062 174.144531 C 56.308594 172.746094 56.726562 171.488281 58.503906 168.691406 C 60.289062 165.894531 61.449219 165.816406 61.296875 163.796875 C 61.039062 160.445312 63.878906 159.101562 62.152344 157.335938 L 60.636719 155.789062 " fill-opacity="1" fill-rule="evenodd"/><g clip-path="url(#7b91f33f40)"><path fill="#2b2b44" d="M 94.113281 182.125 C 97.761719 186.355469 100.011719 191.117188 105.121094 192.816406 C 106.980469 193.433594 108.839844 193.949219 110.871094 194.234375 C 113.886719 194.5625 116.140625 194.265625 118.8125 193.492188 C 119.304688 193.320312 119.820312 193.125 120.339844 192.910156 C 119.820312 193.125 119.304688 193.320312 118.8125 193.492188 C 119.316406 193.347656 119.835938 193.1875 120.378906 193.007812 C 117.027344 194.515625 114.511719 195.339844 110.816406 195.46875 C 110.164062 195.46875 109.539062 195.445312 108.925781 195.402344 C 109.464844 195.992188 110.128906 197.035156 111.039062 198.832031 C 113.726562 204.132812 112.699219 203.371094 118.332031 205.667969 C 120.011719 206.351562 121.625 206.800781 124.25 207.085938 C 124.59375 207.089844 124.949219 207.089844 125.320312 207.085938 C 124.949219 207.089844 124.59375 207.089844 124.25 207.085938 C 124.59375 207.121094 124.949219 207.15625 125.324219 207.1875 C 120.507812 207.511719 118.492188 207.183594 114.632812 206.265625 C 116.902344 211.59375 114.738281 212.515625 120.539062 215.246094 C 122.632812 216.238281 124.890625 216.976562 127.023438 217.695312 C 127.355469 217.773438 127.691406 217.847656 128.023438 217.925781 C 127.691406 217.847656 127.355469 217.773438 127.023438 217.695312 C 127.351562 217.804688 127.679688 217.914062 128 218.027344 C 124.289062 217.476562 120.34375 217.027344 116.847656 215.539062 C 117.667969 222.628906 112.347656 221.132812 123.425781 224.527344 C 124.117188 224.734375 124.8125 224.921875 125.511719 225.066406 C 125.71875 225.085938 125.902344 225.089844 126.058594 225.074219 C 125.902344 225.089844 125.71875 225.085938 125.511719 225.066406 C 125.695312 225.105469 125.878906 225.144531 126.066406 225.175781 C 123.433594 225.46875 119.03125 224.074219 114.785156 223.417969 C 113.730469 224.980469 112.265625 226.699219 110.332031 228.800781 C 115.125 230.378906 120.203125 231.507812 124.816406 233.308594 C 125.25 233.433594 125.664062 233.566406 126.058594 233.699219 C 125.664062 233.566406 125.25 233.433594 124.816406 233.308594 C 125.019531 233.382812 125.222656 233.464844 125.421875 233.542969 C 125.625 233.628906 125.824219 233.710938 126.023438 233.796875 C 120.332031 232.433594 114.335938 231.941406 108.515625 230.746094 C 107.628906 231.683594 106.667969 232.695312 105.617188 233.792969 C 105.242188 234.191406 104.867188 234.574219 104.5 234.953125 C 110.347656 235.515625 116.03125 236.515625 121.921875 237.054688 C 122.386719 237.101562 122.824219 237.171875 123.261719 237.25 C 123.832031 237.320312 124.40625 237.394531 125.074219 237.394531 C 124.40625 237.394531 123.832031 237.320312 123.261719 237.25 L 123.566406 237.304688 C 124.058594 237.386719 124.550781 237.464844 125.074219 237.5 C 123.984375 237.53125 122.988281 237.378906 121.914062 237.382812 C 115.328125 237.417969 108.898438 236.945312 102.320312 237.113281 C 101.875 237.546875 94.195312 244.527344 96.53125 244.773438 C 99.523438 245.097656 102.421875 245.664062 105.683594 245.820312 C 121.078125 245.679688 120.320312 242.332031 128.699219 239.300781 C 129.773438 238.835938 130.953125 238.417969 132.328125 238.078125 C 130.953125 238.417969 129.773438 238.835938 128.699219 239.300781 C 129.753906 238.917969 130.953125 238.539062 132.351562 238.175781 C 119.957031 242.1875 123.613281 246.640625 105.683594 247.429688 C 104.054688 247.4375 102.464844 247.320312 100.890625 247.210938 C 95.144531 246.816406 100.96875 254.179688 108.71875 254.921875 C 109.476562 254.996094 115.636719 255.171875 119.988281 255.171875 C 126.972656 255.175781 131.691406 254.394531 138.476562 252.023438 C 142.601562 250.503906 146.949219 248.683594 150.53125 246.023438 C 150.929688 245.695312 151.292969 245.367188 151.617188 245.035156 C 151.292969 245.367188 150.929688 245.695312 150.53125 246.023438 C 150.929688 245.730469 151.3125 245.421875 151.691406 245.109375 C 148.238281 248.699219 143.421875 251.140625 138.9375 253.175781 C 136.738281 254.125 134.4375 255.050781 132.085938 255.796875 C 130.605469 256.273438 128.042969 257.203125 126.980469 258.332031 C 121.714844 263.921875 135.058594 262.378906 145.597656 263.933594 C 156.132812 265.488281 173.308594 259.058594 175.789062 248.492188 C 178.269531 237.929688 175.65625 230.375 168.53125 223.539062 C 161.402344 216.699219 158.148438 210.644531 156.910156 204.738281 C 156.742188 203.929688 156.582031 202.933594 156.441406 201.808594 L 105.003906 177.226562 C 100.347656 178.035156 96.132812 178.90625 93.738281 179.421875 L 93.621094 179.449219 C 94.578125 180.054688 95.585938 180.609375 96.636719 181.117188 C 100.855469 183.15625 105.742188 184.429688 110.257812 185.070312 C 110.886719 185.128906 111.523438 185.175781 112.171875 185.210938 C 111.523438 185.175781 110.886719 185.128906 110.257812 185.070312 C 110.902344 185.167969 111.539062 185.246094 112.164062 185.3125 C 106.269531 185.242188 99.769531 184.289062 94.113281 182.125 Z M 156.121094 198.769531 C 155.515625 191.6875 155.519531 182.246094 156.910156 180.035156 C 158.769531 177.085938 159.691406 168.421875 162.480469 163.296875 C 164.339844 159.882812 162.640625 157.53125 159.550781 159.210938 C 155.5625 161.378906 151.257812 163.179688 147.308594 163.414062 C 147.308594 163.414062 161.71875 157.042969 166.054688 154.558594 C 170.394531 152.070312 173.960938 145.542969 173.960938 145.542969 C 173.960938 145.542969 184.34375 133.894531 188.371094 130.785156 C 201.332031 120.789062 185.496094 116.945312 185.273438 117.113281 C 183.664062 118.324219 181.511719 118.78125 179.382812 119.003906 C 173.125 119.664062 180.632812 122.613281 181.402344 123.332031 C 183.570312 125.351562 187.910156 126.125 185.742188 127.679688 C 183.570312 129.234375 177.996094 129.546875 174.585938 129.234375 C 171.179688 128.925781 166.527344 129.234375 167.144531 134.363281 C 167.765625 139.488281 164.355469 144.148438 162.339844 144.925781 C 160.328125 145.703125 142.050781 145.554688 137.867188 152.078125 C 135.214844 156.207031 136.46875 161.921875 134.175781 167.574219 C 132.855469 170.828125 131.097656 176.621094 124.847656 175.535156 C 121.371094 174.933594 114.707031 175.660156 108.257812 176.679688 Z M 92.285156 179.882812 C 92.25 179.917969 92.230469 179.953125 92.226562 179.996094 L 92.285156 179.882812 " fill-opacity="1" fill-rule="evenodd"/></g><path fill="#2b2b44" d="M 199.4375 218.757812 C 155.457031 198.460938 111.472656 178.167969 67.492188 157.875 C 67.125 157.703125 66.847656 157.140625 66.953125 156.730469 L 82.929688 95.707031 L 97.472656 40.164062 L 99.371094 40.664062 L 84.832031 96.207031 L 69.0625 156.429688 L 200.257812 216.96875 L 199.4375 218.757812 " fill-opacity="1" fill-rule="nonzero"/><path fill="#2b2b44" d="M 143.121094 138.8125 C 143.179688 138.484375 143.351562 138.234375 143.5625 137.976562 C 143.855469 137.621094 144.164062 137.339844 144.515625 137.046875 C 145.417969 136.304688 146.34375 135.722656 147.347656 135.136719 C 148.832031 134.316406 150.769531 133.3125 152.367188 132.722656 C 154.804688 131.945312 156.523438 130.6875 158.480469 129.089844 C 160.664062 127.242188 162.710938 125.257812 164.832031 123.34375 C 167.058594 121.347656 169.070312 119.65625 171.65625 118.128906 C 174.027344 116.789062 176.015625 116.039062 178.78125 116.222656 C 176.128906 116.511719 174.390625 117.523438 172.3125 119.121094 C 170.128906 120.929688 168.304688 122.894531 166.363281 124.941406 C 164.273438 127.144531 162.363281 129.097656 159.960938 130.96875 C 157.632812 132.710938 155.625 133.882812 152.71875 134.390625 C 151.730469 134.410156 148.710938 135.578125 147.75 135.964844 C 146.707031 136.382812 145.71875 136.816406 144.734375 137.355469 C 144.351562 137.550781 144.019531 137.835938 143.671875 138.085938 C 143.480469 138.226562 143.203125 138.585938 143.121094 138.8125 " fill-opacity="1" fill-rule="nonzero"/><path fill="#2b2b44" d="M 69.78125 185.710938 C 71.382812 185.34375 74.574219 183.496094 78.753906 175.855469 C 82.929688 168.214844 83.667969 171.789062 86.371094 174.992188 C 89.074219 178.195312 88.710938 173.023438 88.460938 181.769531 C 88.21875 190.519531 90.796875 189.902344 85.757812 190.644531 C 80.71875 191.378906 78.875 192.121094 77.15625 193.105469 C 75.433594 194.09375 70.644531 195.203125 69.535156 194.09375 C 68.429688 192.984375 69.78125 185.710938 69.78125 185.710938 " fill-opacity="1" fill-rule="evenodd"/><path fill="#2b2b44" d="M 133.449219 141.992188 C 132.488281 142.539062 131.800781 143.71875 130.867188 144.480469 C 127.257812 147.839844 123.171875 154.007812 119.863281 158.074219 C 117.65625 160.722656 115.554688 163.007812 112.890625 165.21875 C 110.886719 166.875 108.828125 168.367188 106.195312 168.75 C 108.5625 167.824219 110.277344 166.085938 111.972656 164.242188 C 114.082031 161.753906 116 159.136719 117.984375 156.550781 C 121.386719 152.179688 125.605469 146.5625 130.515625 143.917969 C 131.546875 143.367188 132.316406 142.328125 133.449219 141.992188 " fill-opacity="1" fill-rule="nonzero"/><path fill="#2b2b44" d="M 117.730469 151.101562 C 117.71875 151.128906 117.683594 151.148438 117.671875 151.167969 C 117.652344 151.203125 117.558594 151.269531 117.542969 151.296875 C 117.394531 151.453125 117.234375 151.597656 117.066406 151.738281 C 116.542969 152.269531 115.96875 152.753906 115.386719 153.230469 C 113.667969 154.808594 111.933594 156.140625 110.003906 157.445312 C 108.074219 158.796875 101.800781 162.453125 99.617188 162.8125 C 101.210938 160.316406 106.144531 156.964844 108.714844 155.382812 C 110.726562 154.191406 112.671875 153.238281 114.84375 152.367188 C 115.519531 152.050781 116.203125 151.746094 116.90625 151.484375 C 117.097656 151.390625 117.292969 151.300781 117.496094 151.222656 C 117.546875 151.195312 117.609375 151.171875 117.660156 151.144531 C 117.667969 151.140625 117.722656 151.105469 117.730469 151.101562 " fill-opacity="1" fill-rule="nonzero"/><path fill="#2b2b44" d="M 133.214844 157.507812 C 132.96875 158.09375 132.886719 158.265625 132.820312 158.902344 C 132.476562 162.453125 131.664062 165.136719 129.34375 167.886719 C 126.789062 170.597656 124.136719 171.644531 120.449219 171.957031 C 123.734375 170.488281 125.285156 168.980469 127.507812 166.273438 C 129.523438 163.765625 130.925781 161.730469 132.300781 158.773438 C 132.566406 158.136719 132.800781 158.015625 133.214844 157.507812 " fill-opacity="1" fill-rule="nonzero"/><g clip-path="url(#663c5c7a78)"><path fill="#2b2b44" d="M 209.050781 89.101562 L 194.648438 96.234375 C 193.546875 96.304688 192.460938 96.515625 191.476562 96.804688 C 191.375 96.832031 191.273438 96.859375 191.171875 96.894531 C 189.109375 97.527344 187.613281 97.910156 185.425781 98.148438 C 182.1875 98.503906 181.417969 100.710938 182.078125 102.464844 L 71.355469 157.320312 L 70.292969 154.226562 L 207.890625 86.21875 C 214.195312 82.878906 219.179688 80.613281 226.21875 78.933594 C 220.457031 83.082031 215.582031 86.148438 209.050781 89.101562 " fill-opacity="1" fill-rule="evenodd"/></g><path fill="#2b2b44" d="M 89.003906 146.636719 C 82.359375 150.515625 78.160156 152.574219 71.027344 155.4375 C 77.925781 151.320312 81.53125 149.5625 89.003906 146.636719 " fill-opacity="1" fill-rule="nonzero"/><path fill="#2b2b44" d="M 201.332031 100.539062 C 202.277344 102.339844 202.898438 104.480469 203.042969 106.777344 C 203.3125 111.136719 199.339844 115.253906 194.621094 113.308594 C 194.09375 113.089844 190.027344 113.90625 189.632812 113.089844 C 189.492188 112.800781 189.523438 112.199219 190.570312 111.867188 C 191.6875 111.515625 193.445312 111.109375 194.507812 111.53125 C 193.261719 110.03125 191.5625 109.617188 189.394531 110.609375 C 185.085938 112.578125 187.609375 108.761719 189.519531 107.835938 C 191.039062 107.097656 192.898438 106.472656 192.898438 106.472656 C 192.898438 106.472656 191.382812 106.164062 188.082031 107.398438 C 186.71875 107.90625 184.816406 106.71875 185.996094 105.628906 C 188.808594 103.042969 191.367188 104.246094 190.890625 103.359375 C 190.890625 103.359375 186.941406 103.316406 185.355469 103.230469 C 183.769531 103.140625 182.382812 100.199219 185.894531 99.816406 C 189.40625 99.429688 190.71875 98.855469 192.214844 98.414062 C 195.125 97.558594 199.667969 97.378906 201.332031 100.539062 " fill-opacity="1" fill-rule="evenodd"/></g></g></svg>